<svg width="200" height="200" viewBox="0 0 200 200" fill="none" xmlns="http://www.w3.org/2000/svg">
<path d="M100 0C147.14 0 170.711 -0.000129691 185.355 14.6445C200 29.2892 200 52.8595 200 100C200 147.14 200 170.711 185.355 185.355C170.711 200 147.14 200 100 200C52.8595 200 29.2892 200 14.6445 185.355C-0.000129691 170.711 0 147.14 0 100C0 52.8595 -0.000129691 29.2892 14.6445 14.6445C29.2892 -0.000129691 52.8595 0 100 0ZM45.8887 66C41.6988 66 39.6035 65.9998 38.3018 67.293C37 68.5864 37 70.6686 37 74.832V84.7676C37 88.931 37 91.0132 38.3018 92.3066C39.6035 93.6 41.6986 93.5996 45.8887 93.5996H55.8887C60.0788 93.5996 62.1738 93.6003 63.4756 94.8936C64.7773 96.1869 64.7773 98.2684 64.7773 102.432V126.168C64.7773 130.331 64.7774 132.414 66.0791 133.707C67.3809 135 69.4767 135 73.667 135H83.667C87.8568 135 89.9522 135 91.2539 133.707C92.5557 132.414 92.5557 130.331 92.5557 126.168V74.832C92.5557 70.6686 92.5557 68.5864 91.2539 67.293C89.9522 65.9998 87.8569 66 83.667 66H45.8887ZM115.333 107.4C111.143 107.4 109.048 107.4 107.746 108.693C106.444 109.987 106.444 112.069 106.444 116.232V126.168C106.444 130.331 106.444 132.414 107.746 133.707C109.048 135 111.143 135 115.333 135H153.111C157.301 135 159.396 135 160.698 133.707C162 132.414 162 130.331 162 126.168V116.232C162 112.069 162 109.987 160.698 108.693C159.397 107.4 157.301 107.4 153.111 107.4H115.333ZM115.333 66C111.143 66 109.048 65.9998 107.746 67.293C106.444 68.5864 106.444 70.6686 106.444 74.832V84.7676C106.444 88.931 106.444 91.0132 107.746 92.3066C109.048 93.6 111.143 93.5996 115.333 93.5996H125.333C129.523 93.5996 131.619 93.6001 132.921 92.3066C134.222 91.0132 134.223 88.9308 134.223 84.7676V74.832C134.223 70.6686 134.223 68.5864 132.921 67.293C131.619 65.9996 129.523 66 125.333 66H115.333Z" fill="#6966FF"/>
</svg>
