<svg width="200" height="200" viewBox="0 0 200 200" fill="none" xmlns="http://www.w3.org/2000/svg">
<path d="M0 100C0 52.8595 0 29.2893 14.6447 14.6447C29.2893 0 52.8595 0 100 0C147.14 0 170.711 0 185.355 14.6447C200 29.2893 200 52.8595 200 100C200 147.14 200 170.711 185.355 185.355C170.711 200 147.14 200 100 200C52.8595 200 29.2893 200 14.6447 185.355C0 170.711 0 147.14 0 100Z" fill="#6966FF"/>
<path d="M92.5556 126.168C92.5556 130.331 92.5556 132.413 91.2538 133.707C89.9521 135 87.8569 135 83.6667 135H73.6667C69.4764 135 67.3813 135 66.0795 133.707C64.7778 132.413 64.7778 130.331 64.7778 126.168V102.432C64.7778 98.2686 64.7778 96.1868 63.476 94.8934C62.1743 93.6 60.0792 93.6 55.8889 93.6H45.8889C41.6986 93.6 39.6035 93.6 38.3017 92.3066C37 91.0132 37 88.9314 37 84.768V74.832C37 70.6686 37 68.5868 38.3017 67.2934C39.6035 66 41.6986 66 45.8889 66H83.6667C87.8569 66 89.9521 66 91.2538 67.2934C92.5556 68.5868 92.5556 70.6686 92.5556 74.832V126.168Z" fill="white"/>
<path d="M162 126.168C162 130.331 162 132.413 160.698 133.707C159.397 135 157.301 135 153.111 135H115.333C111.143 135 109.048 135 107.746 133.707C106.444 132.413 106.444 130.331 106.444 126.168V116.232C106.444 112.069 106.444 109.987 107.746 108.693C109.048 107.4 111.143 107.4 115.333 107.4H153.111C157.301 107.4 159.397 107.4 160.698 108.693C162 109.987 162 112.069 162 116.232V126.168Z" fill="white"/>
<path d="M134.222 84.768C134.222 88.9314 134.222 91.0132 132.92 92.3066C131.619 93.6 129.524 93.6 125.333 93.6H115.333C111.143 93.6 109.048 93.6 107.746 92.3066C106.444 91.0132 106.444 88.9314 106.444 84.768V74.832C106.444 70.6686 106.444 68.5868 107.746 67.2934C109.048 66 111.143 66 115.333 66H125.333C129.524 66 131.619 66 132.92 67.2934C134.222 68.5868 134.222 70.6686 134.222 74.832V84.768Z" fill="white"/>
</svg>
